<mxfile host="app.diagrams.net" modified="2022-07-08T07:28:41.465Z" agent="5.0 (Windows NT 10.0; Win64; x64) AppleWebKit/537.36 (KHTML, like Gecko) Chrome/103.0.0.0 Safari/537.36" etag="qXwkERfWeiezchwjb8xd" version="20.0.4" type="github">
  <diagram id="ke3fovPmBplBcmioxJcP" name="Page-1">
    <mxGraphModel dx="1438" dy="539" grid="1" gridSize="10" guides="1" tooltips="1" connect="1" arrows="1" fold="1" page="0" pageScale="1" pageWidth="827" pageHeight="1169" math="0" shadow="0">
      <root>
        <mxCell id="0" />
        <mxCell id="1" parent="0" />
        <mxCell id="_C2l7eKZFuwffU4jATRO-14" value="" style="rounded=0;whiteSpace=wrap;html=1;labelBackgroundColor=none;labelBorderColor=none;hachureGap=4;" vertex="1" parent="1">
          <mxGeometry x="-380" y="20" width="560" height="400" as="geometry" />
        </mxCell>
        <mxCell id="_C2l7eKZFuwffU4jATRO-1" value="서버" style="swimlane;fontStyle=0;childLayout=stackLayout;horizontal=1;startSize=30;horizontalStack=0;resizeParent=1;resizeParentMax=0;resizeLast=0;collapsible=1;marginBottom=0;hachureGap=4;labelBackgroundColor=none;" vertex="1" parent="1">
          <mxGeometry x="-360" y="40" width="240" height="360" as="geometry">
            <mxRectangle x="-360" y="40" width="60" height="30" as="alternateBounds" />
          </mxGeometry>
        </mxCell>
        <mxCell id="_C2l7eKZFuwffU4jATRO-2" value="클라이언트에게 네트워크를 통해 정보나 서비스를 제공하는 컴퓨터 또는 프로그램이다." style="text;strokeColor=none;fillColor=none;align=left;verticalAlign=middle;spacingLeft=4;spacingRight=4;overflow=hidden;points=[[0,0.5],[1,0.5]];portConstraint=eastwest;rotatable=0;hachureGap=4;whiteSpace=wrap;labelBorderColor=none;labelBackgroundColor=none;" vertex="1" parent="_C2l7eKZFuwffU4jATRO-1">
          <mxGeometry y="30" width="240" height="60" as="geometry" />
        </mxCell>
        <mxCell id="_C2l7eKZFuwffU4jATRO-3" value="웹 서버는 웹 브라우저(클라이언트)로부터 HTTP요청을 받아들이고, HTML 문서(웹 페이지)를 반환한다." style="text;strokeColor=none;fillColor=none;align=left;verticalAlign=middle;spacingLeft=4;spacingRight=4;overflow=hidden;points=[[0,0.5],[1,0.5]];portConstraint=eastwest;rotatable=0;hachureGap=4;whiteSpace=wrap;" vertex="1" parent="_C2l7eKZFuwffU4jATRO-1">
          <mxGeometry y="90" width="240" height="90" as="geometry" />
        </mxCell>
        <mxCell id="_C2l7eKZFuwffU4jATRO-7" value="콘텐츠 제공뿐만 아니라 클라이언트로부터 콘텐츠를 전달받는 것도 웹 서버의 기능이다." style="text;strokeColor=none;fillColor=none;align=left;verticalAlign=middle;spacingLeft=4;spacingRight=4;overflow=hidden;points=[[0,0.5],[1,0.5]];portConstraint=eastwest;rotatable=0;hachureGap=4;whiteSpace=wrap;" vertex="1" parent="_C2l7eKZFuwffU4jATRO-1">
          <mxGeometry y="180" width="240" height="90" as="geometry" />
        </mxCell>
        <mxCell id="_C2l7eKZFuwffU4jATRO-8" value="서버 프로그램에 대표적인 종류에는 Apache, IIS, nginx, GWS 등이 있다." style="text;strokeColor=none;fillColor=none;align=left;verticalAlign=middle;spacingLeft=4;spacingRight=4;overflow=hidden;points=[[0,0.5],[1,0.5]];portConstraint=eastwest;rotatable=0;hachureGap=4;whiteSpace=wrap;" vertex="1" parent="_C2l7eKZFuwffU4jATRO-1">
          <mxGeometry y="270" width="240" height="90" as="geometry" />
        </mxCell>
        <mxCell id="_C2l7eKZFuwffU4jATRO-9" value="클라이언트" style="swimlane;fontStyle=0;childLayout=stackLayout;horizontal=1;startSize=30;horizontalStack=0;resizeParent=1;resizeParentMax=0;resizeLast=0;collapsible=1;marginBottom=0;labelBackgroundColor=none;labelBorderColor=none;hachureGap=4;html=1;" vertex="1" parent="1">
          <mxGeometry x="-80" y="40" width="240" height="300" as="geometry" />
        </mxCell>
        <mxCell id="_C2l7eKZFuwffU4jATRO-10" value="네트워크를 통하여 다른 서버 시스템 상의 컴퓨터에 원격 서비스에 접속할 수 있는 응용 프로그램이나 서비스를 말한다." style="text;strokeColor=none;fillColor=none;align=left;verticalAlign=middle;spacingLeft=4;spacingRight=4;overflow=hidden;points=[[0,0.5],[1,0.5]];portConstraint=eastwest;rotatable=0;labelBackgroundColor=none;labelBorderColor=none;hachureGap=4;html=1;whiteSpace=wrap;" vertex="1" parent="_C2l7eKZFuwffU4jATRO-9">
          <mxGeometry y="30" width="240" height="90" as="geometry" />
        </mxCell>
        <mxCell id="_C2l7eKZFuwffU4jATRO-11" value="웹 브라우저에 URL을 입력하여, 그 URL에 해당하는 웹 서버로 웹 페이지에 대한 요청을 전달한다." style="text;strokeColor=none;fillColor=none;align=left;verticalAlign=middle;spacingLeft=4;spacingRight=4;overflow=hidden;points=[[0,0.5],[1,0.5]];portConstraint=eastwest;rotatable=0;labelBackgroundColor=none;labelBorderColor=none;hachureGap=4;html=1;whiteSpace=wrap;" vertex="1" parent="_C2l7eKZFuwffU4jATRO-9">
          <mxGeometry y="120" width="240" height="90" as="geometry" />
        </mxCell>
        <mxCell id="_C2l7eKZFuwffU4jATRO-12" value="클라이언트의 대표적인 종류에는 파이어폭스, 크롬, Edge 등이 있다." style="text;strokeColor=none;fillColor=none;align=left;verticalAlign=middle;spacingLeft=4;spacingRight=4;overflow=hidden;points=[[0,0.5],[1,0.5]];portConstraint=eastwest;rotatable=0;labelBackgroundColor=none;labelBorderColor=none;hachureGap=4;html=1;whiteSpace=wrap;" vertex="1" parent="_C2l7eKZFuwffU4jATRO-9">
          <mxGeometry y="210" width="240" height="90" as="geometry" />
        </mxCell>
      </root>
    </mxGraphModel>
  </diagram>
</mxfile>
